<?xml version="1.0" encoding="UTF-8"?>
<svg version="1.1" id="svg2697" xmlns:svg="http://www.w3.org/2000/svg" xmlns="http://www.w3.org/2000/svg" xmlns:xlink="http://www.w3.org/1999/xlink" x="0px" y="0px" width="708.7px" height="128.4px" viewBox="17.7 17.6 708.7 128.4" style="enable-background:new 17.7 17.6 708.7 128.4;" xml:space="preserve">
    <g id="layer1" transform="translate(-28.932209,-686.15494)">
        <path id="path2201" d="M682.7,703.8c-22.5,0-45.6,8.6-57.6,23.8c-6.7-12.4-19-18.7-31.6-18.7H504v84.9l-40-84.9h-30.4l-35.6,76.5   h-15c-5,15.8-17,23.2-36,22.8c-21.3-0.3-37.6-17-38.3-38.8c-0.9-22.8,16.8-40.8,38.7-40.7c15,0.1,26.5,6,34.4,19.1l31.7-4   c0,0-11.9-40-66.5-40c-64,0-71.1,53-71.1,53h-70.6v-25.3h78.9v-22.6H175.4v115.3l-32.9-45.2c0,0,30.9-4.7,30.9-34.9   c0-24.2-19.8-35.2-37.2-35.2H46.6v119.6h30v-46.7h34.5l31.4,46.7h145.5l-0.2-22.5h-82.3v-27h71.3c0,0,6.6,53.3,71,53.3   c16.6,0,28-3.8,28-3.8h34.9l8.9-20.6h59.6l9.5,20.6h45.3v-46.7h32.5l30.4,46.7h35.5l-34.8-50.3c0,0,7.4-0.6,13.1-4.1   c3.4,33.8,36.2,58.2,72.1,58.2c40,0,72.6-28.7,72.6-64.2C755.3,733.1,726,703.8,682.7,703.8z M126.3,759.1H76.6v-27.7h49.7   C148.5,731.4,145.3,759.1,126.3,759.1z M429.8,785.3l19.2-43.7l19.5,43.7H429.8z M581.2,759.1h-47.1v-27.7h47.1   C603.3,731.4,601.4,759.1,581.2,759.1z M683,808.1c-22.3,0.3-40.5-16.9-40.5-39.3s16.3-40.5,40.5-40.7 c22.4-0.1,40.5,18.2,40.5,40.7S705.9,807.8,683,808.1" />
    </g>
</svg>
